<?xml version="1.0" encoding="UTF-8" standalone="no"?>
<svg width="545px" height="105px" viewBox="0 0 545 105" version="1.1" xmlns="http://www.w3.org/2000/svg" xmlns:xlink="http://www.w3.org/1999/xlink" xmlns:sketch="http://www.bohemiancoding.com/sketch/ns">
    <!-- Generator: Sketch 3.3.2 (12043) - http://www.bohemiancoding.com/sketch -->
    <title>icon_long</title>
    <desc>Created with Sketch.</desc>
    <defs></defs>
    <g id="Page-1" stroke="none" stroke-width="1" fill="none" fill-rule="evenodd" sketch:type="MSPage">
        <g id="Group" sketch:type="MSLayerGroup" transform="translate(0.500000, -0.500000)">
            <g id="outer-object" sketch:type="MSShapeGroup">
                <path d="M55.5,100.5 L52.5,7.5" id="Line" stroke="#000000" stroke-width="0.5" stroke-linecap="square"></path>
                <path d="M31.5,13.4 L20.5,7.4" id="Line-Copy-6" stroke="#000000" stroke-width="0.5" stroke-linecap="square"></path>
                <path d="M20,6.5 L22,99.7" id="Line" stroke="#000000" stroke-width="0.5" stroke-linecap="square"></path>
                <path d="M13.4,18.5 L14.4,104.5" id="Line-Copy-9" stroke="#000000" stroke-width="0.5" stroke-linecap="square"></path>
                <path d="M52.3,8.2 L42,21.0000002" id="Line" stroke="#000000" stroke-width="0.5" stroke-linecap="square"></path>
                <path d="M55.4,100.6 L45,91" id="Line" stroke="#000000" stroke-width="0.5" stroke-linecap="square"></path>
                <path d="M25.5,71.5 L29.5,75.5" id="Line" stroke="#000000" stroke-width="0.5" stroke-linecap="square"></path>
                <path d="M17.5,55.5 L20.5,51.5" id="Line" stroke="#000000" stroke-width="0.5" stroke-linecap="square"></path>
                <path d="M1.31465853,12.8653124 L40.8214057,1.53505671 L40.6221973,1.50811 L51.5948536,8.20839409 L51.65805,7.75419931 L13.3242432,18.4335317 L13.502793,18.4505815 L1.35719644,12.4012207 L1.31465853,12.8653124 L1.31465853,12.8653124 Z M1.17681874,12.3846876 L0.558521798,12.5620108 L1.13428083,12.8487793 L13.2798774,18.8981401 L13.4584273,18.9151899 L51.7922341,8.23585751 L52.3464089,8.08147115 L51.8554305,7.78166273 L40.8827743,1.08137864 L40.6835659,1.05443192 L1.17681874,12.3846876 L1.17681874,12.3846876 Z" id="Shape" fill="#000000"></path>
                <path d="M1.56648175,33.8941008 L41.7916238,25.1089446 L41.6229974,25.0865341 L52.2643326,30.6167188 L52.3307638,30.149706 L11.4926956,38.2867799 L11.6509766,38.3071816 L1.62256756,33.4250793 L1.56648175,33.8941008 L1.56648175,33.8941008 Z M1.45979665,33.4056151 L0.756015167,33.5593207 L1.40371085,33.8746366 L11.4321199,38.7567389 L11.590401,38.7771406 L52.4284692,30.6400667 L53.1260734,30.5010676 L52.4949003,30.1730539 L41.8535651,24.6428693 L41.6849387,24.6204588 L1.45979665,33.4056151 L1.45979665,33.4056151 Z" id="Shape" fill="#000000"></path>
                <path d="M0.576835783,11.6639946 L1.49089828,101.757745 L1.49367505,102.031434 L1.76599479,102.003944 L44.2087031,97.719439 L44.4417772,97.6959106 L44.4334352,97.4618006 L40.9764039,0.443571408 L40.4767211,0.461376509 L43.9337523,97.4796057 L44.1584844,97.2219673 L1.71577604,101.506472 L1.99087255,101.752672 L1.07681005,11.658922 L0.576835783,11.6639946 L0.576835783,11.6639946 Z" id="Shape" fill="#000000"></path>
                <path d="M43.981725,97.7162782 L54.6134387,100.968557 L54.6632713,100.48058 L14.3731763,104.251739 L1.8972449,101.576473 L1.79284929,102.065454 L14.3442767,104.745141 L54.7098677,100.978404 L55.9694821,100.860504 L54.7597002,100.490428 L44.1279864,97.2381489 L43.981725,97.7162782 L43.981725,97.7162782 Z" id="Shape" fill="#000000"></path>
                <path d="M1.71405857,79.3266516 L43.3205039,72.7117428 L43.1898393,72.6975326 L53.8906857,76.9013086 L53.9419207,76.4218691 L48.2459572,77.3492779 L48.3263084,77.8427794 L54.022272,76.9153705 L54.9213174,76.7689892 L54.073507,76.435931 L43.3726607,72.2321549 L43.2419961,72.2179447 L1.6355508,78.8328536 L1.71405857,79.3266516 L1.71405857,79.3266516 Z" id="Shape" fill="#000000"></path>
            </g>
            <path d="M11.4192276,77.4992178 L4.1550705,58.0403073 L0.740559896,56.3157552 L0.834635417,51.2867839 L16.4567057,48.1526693 L8.45735677,44.3033854 L8.37402344,19.1578776 L31.6650391,13.4488932 L44.3440755,20.6416016 L45.3333333,43.5400391 L54.2597656,47.7008464 L54.3216146,52.8564453 L48.6064991,54.3293589 L48.6064991,54.3293589 L42.1217461,72.5338542 L28.1035156,74.7688802 L27.014974,69.9869792 L24.6515615,75.3936591 L38.6490885,73.1663411 L49.7369792,77.5986328 L42.8502617,97.5800775 L29.0452474,98.8684896 L25.5185547,89.2617188 L21.8522135,99.0751953 L21.561849,99.5940755 L8.88574219,100.889648 L0.168945312,79.289388 L11.4192276,77.4992178 Z M42.3943819,51.0000391 L46.585612,49.6819661 L43.1451823,48.2600911 L38.764571,49.0767905 L42.3943819,51.0000391 L42.3943819,51.0000391 Z M20.5419018,52.4741342 L10.0003255,54.4394531 L12.2436391,56.3690625 L21.0638021,54.859375 L20.5419018,52.4741342 L20.5419018,52.4741342 Z" id="object" fill="#F8BD0C" sketch:type="MSShapeGroup"></path>
            <g id="overlay-object" transform="translate(1.000000, 0.000000)" fill="#000000" sketch:type="MSShapeGroup">
                <path d="M19.7500566,52.5053179 L20.7500566,99.5053179 L20.7553745,99.7552614 L21.2552614,99.7446255 L21.2499434,99.4946821 L20.2499434,52.4946821 L20.2446255,52.2447386 L19.7447386,52.2553745 L19.7500566,52.5053179 L19.7500566,52.5053179 Z" id="Shape"></path>
                <path d="M19.75,42 L19.75,47 L19.75,47.25 L20.25,47.25 L20.25,47 L20.25,42 L20.25,41.75 L19.75,41.75 L19.75,42 L19.75,42 Z" id="Shape"></path>
                <path d="M34.362818,26.5103768 L40.7915289,25.1089653 L40.6229974,25.0865341 L51.2643326,30.6167188 L51.3375687,30.1484478 L43.698188,31.4518922 L43.865019,31.4816995 L34.4343535,26.0494819 L34.362818,26.5103768 L34.362818,26.5103768 Z M34.2563227,26.0218497 L33.6239613,26.1596998 L34.1847871,26.4827446 L43.6154525,31.9149622 L43.7822835,31.9447694 L51.4216643,30.641325 L52.155147,30.5161769 L51.4949003,30.1730539 L40.8535651,24.6428693 L40.6850336,24.6204381 L34.2563227,26.0218497 L34.2563227,26.0218497 Z" id="Shape"></path>
                <path d="M43.4334352,97.4618006 L39.9764039,0.443571408 L39.4767211,0.461376509 L42.9337523,97.4796057 L43.4334352,97.4618006 L43.4334352,97.4618006 Z" id="Shape"></path>
                <path d="M0.714058572,79.3266516 L42.3205039,72.7117428 L42.1898393,72.6975326 L52.8906857,76.9013086 L53.073507,76.435931 L42.3726607,72.2321549 L42.2419961,72.2179447 L0.635550803,78.8328536 L0.714058572,79.3266516 L0.714058572,79.3266516 Z" id="Shape"></path>
            </g>
            <path d="M40.7963867,44.2878418 L44.7861328,43.564209 L43.1469727,48.142334 L41.7702637,48.4348145 L40.7963867,44.2878418 Z" id="Path" fill="#FEC20E" sketch:type="MSShapeGroup"></path>
            <text id="Aufbau-Ost-Berlin" sketch:type="MSTextLayer" font-family="Akzidenz-Grotesk BQ" font-size="63" font-style="condensed" font-weight="260" line-spacing="40">
                <tspan x="64" y="99.5" fill="#000000">WIEDERAUFBAU </tspan>
                <tspan x="352.729" y="99.5" fill="#F8BD0C">OST</tspan>
                <tspan x="421.021" y="99.5" fill="#000000">BERLIN</tspan>
            </text>
        </g>
    </g>
</svg>